PathFileType	4	(X/Y/Z)	10_2_30_p1_0-255.trc
DataRate	CameraRate	NumFrames	NumMarkers	Units	OrigDataRate	OrigDataStartFrame	OrigNumFrames
60.0	60.0	6	27	m	60.0	32	256
Frame#	Time	RHip			RKnee			RAnkle			RBigToe			RSmallToe			RHeel			LHip			LKnee			LAnkle			LBigToe			LSmallToe			LHeel			Neck			Head			Nose			RShoulder			RElbow			RWrist			RThumb			RIndex			RPinky			LShoulder			LElbow			LWrist			LThumb			LIndex			LPinky			
		X1	Y1	Z1	X2	Y2	Z2	X3	Y3	Z3	X4	Y4	Z4	X5	Y5	Z5	X6	Y6	Z6	X7	Y7	Z7	X8	Y8	Z8	X9	Y9	Z9	X10	Y10	Z10	X11	Y11	Z11	X12	Y12	Z12	X13	Y13	Z13	X14	Y14	Z14	X15	Y15	Z15	X16	Y16	Z16	X17	Y17	Z17	X18	Y18	Z18	X19	Y19	Z19	X20	Y20	Z20	X21	Y21	Z21	X22	Y22	Z22	X23	Y23	Z23	X24	Y24	Z24	X25	Y25	Z25	X26	Y26	Z26	X27	Y27	Z27	
32	0.5333333333333333	0.3097629485802691	0.5528842836844569	0.9344049477428635	0.31835802930360935	0.6786098101400365	1.3830779888264215	0.3187942555099106	0.8012306042977262	1.7674756974768693	0.2827019973740242	0.6238623478821785	1.8631936835007266	0.3565652292657977	0.6880725103633792	1.8563215653712704	0.28849684435778167	0.883776129169276	1.8264378120344218	0.10517215787116774	0.5162151818467913	0.9511572351219757	0.09083261172333815	0.6339536516218213	1.3656078751438265	0.10149871770432634	0.7615591393626451	1.7667656883547924	0.13047555456885906	0.6389755430374083	1.8833366051895941	0.0581021384672851	0.6366934955531801	1.8478236236532326	0.11697004413258612	0.87886445900882	1.8236803392395795	0.20120571431656162	0.4334321431763725	0.4234963469437691	0.21101512742282524	0.3224412906260335	0.19351618348554883	0.22956531723152443	0.31980947157661743	0.3197319028434769	0.37124958707509087	0.4908322155089458	0.5169946509736396	0.5015620009127609	0.5122672347175073	0.7600105218171338	0.4229265400752543	0.3919515270115309	0.9618825844520769	0.3340482512587981	0.4102981977793485	1.051800646248954	0.34144032233986915	0.4243152208230109	1.0631956703215801	0.3429812243643879	0.398850704545046	1.0671037412488105	0.05013411193521286	0.4284231891237589	0.5422549569951743	0.04193882629747026	0.40995374155087677	0.8162958311798378	0.15393875518896433	0.3838028510081399	1.0254860293621344	0.23663444956304863	0.3277150571718317	1.0666353359736174	0.23311213807374362	0.323867521912334	1.120199445847458	0.20827296515857344	0.3741731985196637	1.1491040773358432
33	0.55	0.30447060376534113	0.560088661911473	0.9335954242253859	0.32052242970964767	0.6771178333210292	1.3844328384235716	0.31924822072286446	0.8000245881633531	1.7714535538973997	0.28190569400715126	0.6210441089041698	1.858532758858397	0.3562489289491318	0.6879443633094996	1.8650512434757522	0.28292029524316037	0.9008305726957097	1.8361295855004967	0.10427219291204963	0.513231283666263	0.9536693743112729	0.09441100074310403	0.63503219369018	1.3635595301881083	0.10143567611803173	0.7615819300819964	1.766973389690987	0.13622763138705682	0.6243559947067944	1.8773043905660505	0.057949937136496064	0.6371669081648494	1.8482152519851796	0.11702301521808753	0.8788402702496001	1.8238047228709986	0.20108770677438118	0.4334000379513202	0.4234991942667572	0.2111403607477571	0.32240886018856163	0.19346345601837722	0.23396888415983347	0.3081475645270284	0.32092763225794746	0.371029883472881	0.4915015581898001	0.5202721026845191	0.5011859498546972	0.5137487225700773	0.7483442013105327	0.4414314794564306	0.4141416446350212	0.962543555865648	0.3461497171823871	0.4099946557523795	1.053060156344223	0.36500503201990425	0.40751206745065366	1.0601688346425249	0.38349404785763813	0.41334472379095466	1.0689640964872318	0.050014462125764	0.42862952202972177	0.541970083299764	0.041533144644726	0.4099130278801769	0.8159076602268943	0.1418454699685272	0.38581421890693196	1.0339520379434461	0.21557490869775153	0.34203742523165087	1.0878516825028646	0.21105471716977064	0.3289577260003541	1.1316310392891553	0.19508953690206016	0.37833171516812736	1.1669438565025279
34	0.5666666666666667	0.3038163891146721	0.565159182156327	0.927161527282607	0.3205946794384057	0.6773416210169255	1.375509955766545	0.32366870495390593	0.8013709237917157	1.7716272632097534	0.28284796959174763	0.6236416354422489	1.863538686880892	0.3611105472910513	0.6716349358582375	1.8582323246829653	0.2828122094653594	0.9008734730009464	1.8360913053272048	0.09929712369919441	0.528440853007198	0.9555356904881636	0.09363499471444899	0.6361568456216079	1.3555785245642047	0.10129986488877586	0.7620355885359676	1.767547257991102	0.13619727496394698	0.6239101033521985	1.8773446040479738	0.057982651032480986	0.6371745913281772	1.8484361528255262	0.11741140523067832	0.8776854004156359	1.827570415984243	0.20105634560130325	0.43398312509833087	0.42378113642622395	0.2111161839370604	0.3225322761411489	0.1934201888988373	0.22944047718841246	0.3196192259978558	0.3198525548888453	0.37032502886049096	0.48977057119731504	0.5127441739987588	0.5133262000597514	0.5006399532683241	0.7395838888873162	0.4581206610494592	0.4158274586402429	0.9602914026264665	0.36183156662876814	0.42349262036288865	1.0540090992195197	0.39234137040734524	0.38584782944413987	1.0574668278437638	0.4225794064980794	0.39561474808135677	1.0617244271739754	0.0498101469789122	0.42667023732605186	0.538356026261245	0.03946757350366844	0.4201343026884758	0.8161892002844318	0.11514979712301206	0.36560999087198165	1.0286093791300592	0.20319502184379662	0.34102041976407876	1.089908803345317	0.19800054034905873	0.3447671842913219	1.139405177270878	0.17421562926983267	0.3417624846222456	1.1634481004357484
35	0.5833333333333334	0.3038927043009356	0.5659291892817766	0.923703455004928	0.3202062703984726	0.678176695395898	1.3751524408931923	0.3192483390422152	0.800236977414679	1.7716203836955766	0.28689732238041415	0.6102122252659503	1.8624248122797615	0.3611676930579241	0.6714417785519906	1.8582348410231568	0.2825396690317959	0.9006256109566855	1.835859063932114	0.10274686268282097	0.5372990663195808	0.9448342546874134	0.09391764002560771	0.6336124117539771	1.3494141539529259	0.09994851064296398	0.763534917308681	1.7722511656757964	0.1363496161095809	0.624029800079636	1.8770168257489328	0.06347601468588307	0.6229022401371567	1.8426367259457554	0.11658882234024197	0.8791337958274764	1.8240025087341667	0.20098977620507652	0.4344171912262743	0.4238889627774986	0.21329902488763666	0.33335107797191355	0.19163216285115064	0.2294216388501192	0.31999346007133805	0.3198938637657147	0.3703989065381753	0.4898948106063363	0.5129379156771997	0.5377207285401742	0.4809635226187193	0.7259881693317416	0.4908890922718298	0.3750898006228553	0.9461664534927083	0.4169044693681185	0.3981922797768755	1.0431833598438496	0.42222200783378105	0.390506771677664	1.0529043672311884	0.44992169956675154	0.4472344413690371	1.0597399941046552	0.0499798460414272	0.42613075403492756	0.5348637392572236	0.03880311396763265	0.4204496159501411	0.8124569143870046	0.104086364735135	0.3505732275708781	1.0319279186469383	0.1948550911433949	0.34886967458791734	1.1150280406175026	0.18347213211622815	0.3022942231652878	1.143258789209243	0.11459064305880987	0.3543314348647219	1.167095740929868
36	0.6	0.2958149929983954	0.5772216685860888	0.9132430376011068	0.318969161179699	0.6803767237145254	1.3667227777678557	0.31908144662995025	0.8002372665793501	1.7717234892152478	0.280952486455235	0.6221054144084244	1.864201560998646	0.3564597128234283	0.6876038766742694	1.8662813553473911	0.2831114018953813	0.8988266235260902	1.8382039058359905	0.097566082687631	0.5515244976559993	0.9383028910180189	0.09300189778223905	0.6341904734445375	1.345578939350373	0.10003124132459484	0.7584902981299496	1.7617008471637248	0.13643411544235404	0.623666906368222	1.8769001369078742	0.06331596296984114	0.6231511480786045	1.842771285573098	0.10898824127088244	0.893142874851309	1.824677538108853	0.19602994997711856	0.4477236287647682	0.42324474453278843	0.21579820665627666	0.3087884974202427	0.19628603983707496	0.22946407987303738	0.3196319664516929	0.32004498119422525	0.370496270397622	0.48956995043709456	0.5127080452089602	0.5507845748474197	0.4519545570671508	0.7134852214864592	0.5066647766600618	0.35061913503895553	0.9309577520573408	0.4345079707670237	0.3925117263176889	1.0385403976101257	0.4439529158841016	0.39912290907151915	1.0583855298839335	0.4870097168718925	0.4501459562330715	1.0468618745665095	0.0496192302257924	0.42659440588913144	0.530748052657605	0.03840796544524037	0.42047797714943136	0.8119948291369599	0.09230153375463751	0.3492323348526244	1.0401003580810917	0.18660729524317907	0.3503224363187164	1.1157964006363064	0.15437836340248828	0.2958019581393984	1.1511911047781749	0.10418672536803578	0.3661218435914441	1.173923262719034
37	0.6166666666666667	0.30024939296605113	0.5593849934251152	0.9110273309199295	0.31720842486267253	0.6757481100549252	1.3531853677194874	0.3143644309567653	0.8157892420287896	1.781883167728308	0.28096643918869657	0.6222226810213517	1.8647449098251359	0.35649884272114374	0.6878485289355551	1.866786344951827	0.2839556322432424	0.8983160508926629	1.8419420337978727	0.1018169542654222	0.5312951070610658	0.9319015966202014	0.09534810318147668	0.6334790049838969	1.3598233210268065	0.09515832533310678	0.7773408570559294	1.7723608287571913	0.1364246324419149	0.6235578853578436	1.8768866258124346	0.0633890558928782	0.6232601791904591	1.842978845441963	0.10994363971122607	0.8966284025141977	1.83068752007679	0.19611295393089148	0.44974133260574667	0.42668370757684315	0.21807347969133442	0.3213107783294733	0.19734597152216773	0.22950257913397978	0.31957095868506574	0.32007467803225287	0.37032190144513405	0.48633186266090994	0.5049789914680893	0.5661841361573979	0.43557484132656965	0.7040981381722692	0.5188749442053999	0.34771703165470486	0.9082582196384843	0.4711855830322062	0.4159992137042708	1.033565701837482	0.49129472918856815	0.41802297135277844	1.0522390257526653	0.5235331441717633	0.3699670726330329	1.0283990977451833	0.04955352434022781	0.42634612217676493	0.5311388573343127	0.03292744580386126	0.43518373562234114	0.8168278391115741	0.08672043661417829	0.36409042191352436	1.0545487824884399	0.16141713994216486	0.3386801345251988	1.1238217601276486	0.12135816369592695	0.337719009492392	1.1717671034572528	0.09197571796138099	0.3657258188566942	1.1752697660195417
